<svg id="_96ec30bf-e6f2-4058-8d44-9e85ce389019" data-name="96ec30bf-e6f2-4058-8d44-9e85ce389019" xmlns="http://www.w3.org/2000/svg" viewBox="0 0 96.1 60.9"><title>cloud</title><path d="M97.89,45.17a16.24,16.24,0,0,0-16-13.87H74.6a11.43,11.43,0,0,1,0-1.54,26.68,26.68,0,0,0-1.3-8.28,27,27,0,0,0-50.12-3.36A7.25,7.25,0,0,1,18.23,22,21.15,21.15,0,0,0,2,42.84c.15,11.63,10,20.8,21.68,20.8H81.88A16.2,16.2,0,0,0,98.05,47.47,17.42,17.42,0,0,0,97.89,45.17ZM83.83,53.34a12.85,12.85,0,0,1-9,3.66H28.48A16.49,16.49,0,0,1,11.93,41.73a16.1,16.1,0,0,1,4.82-10.51A16.83,16.83,0,0,1,27.5,26.48a21.43,21.43,0,0,1,40.53,0A20.18,20.18,0,0,1,69,32a.28.28,0,0,0,0,.09h0c0,.27,0,.53,0,.79s0,.79,0,1.19h5.81a12.71,12.71,0,0,1,12.61,10.7c0,.24.06.49.08.73A12.39,12.39,0,0,1,83.83,53.34Z" transform="translate(-1.95 -2.74)" style="fill:#ff0"/></svg>