<!-- <svg 
 xmlns="http://www.w3.org/2000/svg"
 xmlns:xlink="http://www.w3.org/1999/xlink"
 width="16.667in" height="6.167in">
<path fill-rule="evenodd"  fill="rgb(213, 126, 98)"
 d="M-0.000,73.000 C-0.000,73.000 124.901,-0.000 294.000,-0.000 C482.029,-0.000 724.731,73.000 911.666,73.000 C1077.935,73.000 1199.000,4.000 1199.000,4.000 L1200.000,367.000 C1200.000,367.000 908.510,444.000 613.000,444.000 C308.641,444.000 -0.000,367.000 -0.000,367.000 L-0.000,73.000 Z"/>
</svg> -->

<svg height="0" width="0">
  <defs>
    <clipPath id="cross">
      <path fill-rule="evenodd"  fill="rgb(213, 126, 98)"
 d="M-0.000,73.000 C-0.000,73.000 124.901,-0.000 294.000,-0.000 C482.029,-0.000 724.731,73.000 911.666,73.000 C1077.935,73.000 1199.000,4.000 1199.000,4.000 L1200.000,367.000 C1200.000,367.000 908.510,444.000 613.000,444.000 C308.641,444.000 -0.000,367.000 -0.000,367.000 L-0.000,73.000 Z"/>
    </clipPath>
  </defs>
</svg>