<!-- <svg 
 xmlns="http://www.w3.org/2000/svg"
 xmlns:xlink="http://www.w3.org/1999/xlink"
 width="18.972in" height="6.958in">
<path fill-rule="evenodd"  fill="rgb(213, 126, 98)"
 d="M-0.000,82.372 C-0.000,82.372 142.179,0.000 334.670,0.000 C548.709,0.000 824.986,82.372 1037.780,82.372 C1227.049,82.372 1364.862,4.514 1364.862,4.514 L1366.000,414.115 C1366.000,414.115 1034.187,501.000 697.798,501.000 C351.336,501.000 -0.000,414.115 -0.000,414.115 L-0.000,82.372 Z"/>
</svg> -->


<svg 
xmlns="http://www.w3.org/2000/svg"
xmlns:xlink="http://www.w3.org/1999/xlink"
width="100%" 
height="100%"
viewBox="0 0 100% 100%"
preserveAspectRatio="xMaxYMid meet"  x="0"  y="0"

>
      <defs>
        <clipPath id="cross">
          <path fill-rule="evenodd" fill="rgb(213, 126, 98)"
          d="M-0.000,82.372 C-0.000,82.372 142.179,0.000 334.670,0.000 C548.709,0.000 824.986,82.372 1037.780,82.372 C1227.049,82.372 1364.862,4.514 1364.862,4.514 L1366.000,414.115 C1366.000,414.115 1034.187,501.000 697.798,501.000 C351.336,501.000 -0.000,414.115 -0.000,414.115 L-0.000,82.372 Z"/>
        </clipPath>
      </defs>
    </svg>